<svg xmlns="http://www.w3.org/2000/svg" xmlns:xlink="http://www.w3.org/1999/xlink" viewBox="0 0 1010.34 199.2"><defs><style>.cls-1{fill:url(#linear-gradient);}.cls-2{fill:url(#linear-gradient-2);}.cls-3{fill:url(#linear-gradient-3);}.cls-4{fill:url(#linear-gradient-4);}.cls-5{fill:url(#linear-gradient-5);}.cls-6{fill:url(#linear-gradient-6);}.cls-7{fill:url(#linear-gradient-7);}.cls-8{fill:url(#linear-gradient-8);}.cls-9{fill:url(#linear-gradient-9);}.cls-10{fill:url(#linear-gradient-10);}</style><linearGradient id="linear-gradient" x1="-27.83" y1="132.94" x2="1179.53" y2="122.22" gradientUnits="userSpaceOnUse"><stop offset="0" stop-color="#446280"/><stop offset="1" stop-color="#1dc8cd"/></linearGradient><linearGradient id="linear-gradient-2" x1="-28.03" y1="109.9" x2="1179.33" y2="99.18" xlink:href="#linear-gradient"/><linearGradient id="linear-gradient-3" x1="-28.01" y1="111.73" x2="1179.35" y2="101.02" xlink:href="#linear-gradient"/><linearGradient id="linear-gradient-4" x1="-28.25" y1="84.76" x2="1179.11" y2="74.04" xlink:href="#linear-gradient"/><linearGradient id="linear-gradient-5" x1="-27.99" y1="113.82" x2="1179.36" y2="103.11" xlink:href="#linear-gradient"/><linearGradient id="linear-gradient-6" x1="-28.07" y1="105.61" x2="1179.29" y2="94.89" xlink:href="#linear-gradient"/><linearGradient id="linear-gradient-7" x1="-28.07" y1="105.1" x2="1179.29" y2="94.38" xlink:href="#linear-gradient"/><linearGradient id="linear-gradient-8" x1="-28.3" y1="79.88" x2="1179.06" y2="69.17" xlink:href="#linear-gradient"/><linearGradient id="linear-gradient-9" x1="-28.05" y1="107.3" x2="1179.31" y2="96.58" xlink:href="#linear-gradient"/><linearGradient id="linear-gradient-10" x1="-28.52" y1="55.16" x2="1178.84" y2="44.44" xlink:href="#linear-gradient"/></defs><title>Asset 1</title><g id="Layer_2" data-name="Layer 2"><g id="Layer_1-2" data-name="Layer 1"><path class="cls-1" d="M597.05,145.2q-2.4,17.2-9,27.8t-14.8,16.4a47.5,47.5,0,0,1-17.1,7.8,73.54,73.54,0,0,1-15.9,2,63.64,63.64,0,0,1-25.7-5.1q-11.7-5.1-17.5-14.3l10.8-8.8a30.44,30.44,0,0,0,14,13.2,50.62,50.62,0,0,0,35.6,1.8,37,37,0,0,0,19-14.9,47.42,47.42,0,0,0,4.7-9.4,58.33,58.33,0,0,0,2.5-8.9q.79-4.2,1.2-6.8l1.8-12.8h-.4a45.61,45.61,0,0,1-15.9,13.2,47,47,0,0,1-21.5,4.8,46.31,46.31,0,0,1-18.7-3.7,40.11,40.11,0,0,1-22.8-25.3,41.3,41.3,0,0,1-1.3-18.4,49.39,49.39,0,0,1,6.5-18.4,58.47,58.47,0,0,1,12.7-15,62.16,62.16,0,0,1,17.1-10.2,52.63,52.63,0,0,1,19.7-3.8q12,0,20.2,4.8a29.91,29.91,0,0,1,12.2,13.2h.4l2.2-15.6h12Zm-5.8-41.4a35,35,0,0,0-.9-14.3,29.53,29.53,0,0,0-6.2-11.6,31.55,31.55,0,0,0-10.5-7.8,32.2,32.2,0,0,0-13.8-2.9,38.56,38.56,0,0,0-14.7,2.9,46.3,46.3,0,0,0-12.8,7.8,43.32,43.32,0,0,0-9.5,11.6,39.18,39.18,0,0,0-4.8,14.3,35,35,0,0,0,.9,14.3,29.53,29.53,0,0,0,6.2,11.6,31.55,31.55,0,0,0,10.5,7.8,32.2,32.2,0,0,0,13.8,2.9,38.56,38.56,0,0,0,14.7-2.9,46.3,46.3,0,0,0,12.8-7.8,43.32,43.32,0,0,0,9.5-11.6A39.18,39.18,0,0,0,591.25,103.8Z"/><path class="cls-2" d="M634.85,84.8q.39-2.6.8-6.3c.26-2.47.5-5,.7-7.5s.4-4.9.6-7.1.36-3.9.5-5.1h12q-.41,5.21-1,10a30.32,30.32,0,0,0-.4,6.2,51.12,51.12,0,0,1,13.7-13.4,32.46,32.46,0,0,1,18.3-5.2,25.33,25.33,0,0,1,6.8,1l-3,11.8a12.92,12.92,0,0,0-4.4-.8,35.57,35.57,0,0,0-13.8,2.5,31.94,31.94,0,0,0-10.4,6.9,33.37,33.37,0,0,0-7,10.3,48.51,48.51,0,0,0-3.6,12.7l-7,50.4h-12Z"/><path class="cls-3" d="M769.45,112.4q-1,6.8-1.7,12.2t-1.1,10c-.27,3.07-.47,5.93-.6,8.6s-.2,5.33-.2,8h-11.2a61.72,61.72,0,0,1,0-7.2q.2-3.8.8-7.8h-.4a40.89,40.89,0,0,1-14.7,13.2q-8.31,4.2-20.1,4.2a44.62,44.62,0,0,1-11.6-1.5,26.89,26.89,0,0,1-9.8-4.8,20.19,20.19,0,0,1-6.3-8.5q-2.1-5.2-1.1-12.6,1.39-10.61,7.8-16.8a42,42,0,0,1,14.7-9.3,68.62,68.62,0,0,1,17.3-4q9-.9,15.8-.9h14l.8-5.6q1.59-12-5-17.2t-17.8-5.2a48,48,0,0,0-29.8,10.4l-5.8-8.2a52.16,52.16,0,0,1,17.8-9.7,62.5,62.5,0,0,1,19.2-3.3q16.8,0,25.7,7.9t6.5,25.5Zm-23-7.6a109,109,0,0,0-14.9,1,54.7,54.7,0,0,0-13.2,3.4,30.51,30.51,0,0,0-10,6.4,16.56,16.56,0,0,0-4.9,10,13.82,13.82,0,0,0,.8,7.5,13.24,13.24,0,0,0,4.1,5.4,19.3,19.3,0,0,0,6.3,3.2,25.26,25.26,0,0,0,7.4,1.1q9.6,0,16.2-2.8a31.31,31.31,0,0,0,17.5-17.5,48.72,48.72,0,0,0,3.1-11.5l.8-6.2Z"/><path class="cls-4" d="M879.05,135h-.4a36.88,36.88,0,0,1-8.1,8.3,50.35,50.35,0,0,1-10,5.8,53.62,53.62,0,0,1-10.8,3.4,54.84,54.84,0,0,1-10.7,1.1A48.5,48.5,0,0,1,820,150a36.74,36.74,0,0,1-14-10.1,39.29,39.29,0,0,1-7.9-15.4,47.21,47.21,0,0,1-.8-19.5,54.79,54.79,0,0,1,6.3-19.5,57.46,57.46,0,0,1,12.2-15.4A53.45,53.45,0,0,1,832.55,60a56.22,56.22,0,0,1,20.1-3.6,50.43,50.43,0,0,1,10.4,1.1,42.6,42.6,0,0,1,9.9,3.4,32,32,0,0,1,8.3,5.8,27.34,27.34,0,0,1,5.8,8.3h.4l10.6-75h12l-21.2,151.2h-12Zm5.4-30a33.84,33.84,0,0,0-.8-14.7,30.94,30.94,0,0,0-6.5-12,32.53,32.53,0,0,0-11.1-8.1,35.39,35.39,0,0,0-14.8-3,40.15,40.15,0,0,0-15.6,3A42,42,0,0,0,814,90.3a48.44,48.44,0,0,0-4.7,14.7,38.55,38.55,0,0,0,.4,14.7,30.08,30.08,0,0,0,5.6,12,28,28,0,0,0,10.4,8.1,34.49,34.49,0,0,0,14.8,3,41.91,41.91,0,0,0,15.7-3,47.12,47.12,0,0,0,13.4-8.1,45.06,45.06,0,0,0,9.8-12A42.89,42.89,0,0,0,884.45,105Z"/><path class="cls-5" d="M1002.24,133.8a50.38,50.38,0,0,1-19.5,15.2,59.21,59.21,0,0,1-23.3,4.6,45.7,45.7,0,0,1-18.7-3.6,35.77,35.77,0,0,1-13.4-10.1,37.71,37.71,0,0,1-7.4-15.4,52.32,52.32,0,0,1-.5-19.7,56.78,56.78,0,0,1,17.9-34.5,54.77,54.77,0,0,1,16-10.2,49.25,49.25,0,0,1,19.1-3.7q10.6,0,18.21,3.7a34,34,0,0,1,12.29,9.8,34.39,34.39,0,0,1,6.4,13.9,43,43,0,0,1,.5,15.8l-1.19,8.4H931a36.88,36.88,0,0,0,.11,9.7A30.14,30.14,0,0,0,935,129.2a28.5,28.5,0,0,0,9.3,9.6q6.1,4,16.7,4a43,43,0,0,0,18.5-4.4,38.52,38.52,0,0,0,14.9-12ZM998,97.2a27.72,27.72,0,0,0-.8-11.6,23.51,23.51,0,0,0-5.4-9.5,27.46,27.46,0,0,0-9.3-6.5,29.91,29.91,0,0,0-12.1-2.4,33.88,33.88,0,0,0-16.9,4,44.86,44.86,0,0,0-11.7,9.2,43.71,43.71,0,0,0-6.9,10.1,27.68,27.68,0,0,0-2.5,6.7Z"/><path class="cls-6" d="M107.46,84a38.44,38.44,0,0,0-8.8-7,18.94,18.94,0,0,0-9.4-2.6,27.41,27.41,0,0,0-20.7,8.8A27,27,0,0,0,63,92.4,31.64,31.64,0,0,0,63,114a27,27,0,0,0,5.6,9.2,27.41,27.41,0,0,0,20.7,8.8,23.81,23.81,0,0,0,10.4-2.3,22.66,22.66,0,0,0,8.2-6.7l16,17.2a36.92,36.92,0,0,1-8.3,6.2,57.38,57.38,0,0,1-9.5,4.2,58.06,58.06,0,0,1-9.2,2.3,49,49,0,0,1-7.6.7,57.62,57.62,0,0,1-20.4-3.6,48.87,48.87,0,0,1-16.6-10.2,48.3,48.3,0,0,1-11.1-15.9,50.66,50.66,0,0,1-4.1-20.7,50.66,50.66,0,0,1,4.1-20.7,48.3,48.3,0,0,1,11.1-15.9c4.66-4.4,10.91-1.54,17.31-3.94s15.3-1.14,24-4c5.82-1.92,8-4.69,14.19-2.36a42.05,42.05,0,0,1,16.3,11.1Z"/><path class="cls-7" d="M133.46,103.2a50.66,50.66,0,0,1,4.1-20.7,48.3,48.3,0,0,1,11.1-15.9,48.87,48.87,0,0,1,16.6-10.2,59.6,59.6,0,0,1,40.8,0,47.7,47.7,0,0,1,27.7,26.1,50.83,50.83,0,0,1,4.1,20.7,50.83,50.83,0,0,1-4.1,20.7,47.7,47.7,0,0,1-27.7,26.1,59.6,59.6,0,0,1-40.8,0,48.87,48.87,0,0,1-16.6-10.2,48.3,48.3,0,0,1-11.1-15.9A50.66,50.66,0,0,1,133.46,103.2Zm24,0a31.18,31.18,0,0,0,1.9,10.8,27,27,0,0,0,5.6,9.2,28.37,28.37,0,0,0,41.4,0A27.26,27.26,0,0,0,212,114a31.64,31.64,0,0,0,0-21.6,27.26,27.26,0,0,0-5.6-9.2,28.37,28.37,0,0,0-41.4,0,27,27,0,0,0-5.6,9.2A31.18,31.18,0,0,0,157.46,103.2Z"/><path class="cls-8" d="M336.25,136.8h-.4a30.87,30.87,0,0,1-14,12.8,45.33,45.33,0,0,1-19,4,48.17,48.17,0,0,1-19.9-3.9,44.6,44.6,0,0,1-14.9-10.7,45.75,45.75,0,0,1-9.4-16,59.92,59.92,0,0,1-3.2-19.8,56.57,56.57,0,0,1,3.4-19.8,49.24,49.24,0,0,1,9.5-16,43.9,43.9,0,0,1,14.7-10.7,45,45,0,0,1,18.8-3.9,46.53,46.53,0,0,1,12,1.4,41,41,0,0,1,9.2,3.6,36.8,36.8,0,0,1,6.8,4.7,34.15,34.15,0,0,1,4.6,4.9h.6V0h24V151.2h-22.8Zm-56.8-33.6a31.18,31.18,0,0,0,1.9,10.8,27.1,27.1,0,0,0,5.6,9.2,28.37,28.37,0,0,0,41.4,0A27.1,27.1,0,0,0,334,114a31.64,31.64,0,0,0,0-21.6,27.1,27.1,0,0,0-5.6-9.2,28.37,28.37,0,0,0-41.4,0,27.1,27.1,0,0,0-5.6,9.2A31.18,31.18,0,0,0,279.45,103.2Z"/><path class="cls-9" d="M405.45,111.6q1.2,10.8,8.4,16.8a26.29,26.29,0,0,0,17.4,6q9,0,15.1-3.7a42,42,0,0,0,10.7-9.3l17.2,13q-8.4,10.4-18.8,14.8a55.43,55.43,0,0,1-21.8,4.4,57.62,57.62,0,0,1-20.4-3.6,49,49,0,0,1-16.6-10.2,48.3,48.3,0,0,1-11.1-15.9,50.83,50.83,0,0,1-4.1-20.7,50.83,50.83,0,0,1,4.1-20.7,48.3,48.3,0,0,1,11.1-15.9,49,49,0,0,1,16.6-10.2,57.62,57.62,0,0,1,20.4-3.6A46.67,46.67,0,0,1,452,56.3a39.21,39.21,0,0,1,14.2,10.1,46.67,46.67,0,0,1,9.2,16.3,69.16,69.16,0,0,1,3.3,22.3v6.6Zm49.2-18q-.19-10.6-6.6-16.7t-17.8-6.1q-10.8,0-17.1,6.2t-7.7,16.6Z"/><g id="surface1"><path class="cls-10" d="M68.82.49A3,3,0,0,0,68,.77L1.68,31.91a2.85,2.85,0,0,0,.63,5.39l16.45,3.52c-.13.22-.34.39-.48.61-2.92,4.76-4,11-3.68,19.74a7.61,7.61,0,0,0,1.62,13.65c0,19.74-10.77,27.64-10.57,29.3.1.85,9.66,4.69,11.82,4.43,3.32-.39,10.66-6.9,9.21-19.12A91.61,91.61,0,0,0,23.3,73.07a7.07,7.07,0,0,0-1.78-12c-.29-8,.68-12.74,2.66-16,2.29-3.75,6.42-6.36,12.68-9.87.3-.18.77-.46,1.19-.69.09,0,.08-.17.16-.2,1.09-.59,2.23-1.18,3.09-1.64,4.1-2.29,7.5-4,10.63-5.63.94-.5,1.51-.91,2.38-1.37,2.83-1.5,4.87-2.54,6.87-3.55l1.89-.95c4.54-2.26,6.49-3.11,6.55-3.14a3.43,3.43,0,1,1,2.92,6.21c-.13.06-7.81,3.41-27.78,14.58-1.29.72-2.61,1.26-3.79,1.9C38.6,42,36.64,43.2,35,44.19l39,8a2.86,2.86,0,0,0,.92.07,2.92,2.92,0,0,0,.88-.28L142.08,20.8a2.84,2.84,0,0,0-.64-5.39L69.74.56A2.82,2.82,0,0,0,68.82.49Zm51.25,39.12L78.48,59.09a10.36,10.36,0,0,1-5.39.64L29.57,50.66c-.53,2.06-.54,4.68-.1,8.39,2.93,1.25,6,4.12,6.6,9.6a11,11,0,0,1-2.36,7.75c7,6.48,24.77,9.64,44.93,7.26,25.4-3,45-13.62,43.83-23.75Z"/></g></g></g></svg>